<svg xmlns="http://www.w3.org/2000/svg" viewBox="30 10 230 205"><g class="toutou" transform="rotate(-3 133 166)">
    <ellipse cx="135" cy="196" rx="62" ry="9" fill="#F5A7A7" opacity="0.28" filter="url(#ab20)"/>
    
    <g transform="translate(133,166) scale(0.94,1.07) translate(-133,-166)">
    <defs>
      <radialGradient id="a17" gradientUnits="userSpaceOnUse" cx="118" cy="70" r="125"><stop offset="0" stop-color="#FFFFFF"/><stop offset=".55" stop-color="#FBF7F8"/><stop offset="1" stop-color="#E3DAE6"/></radialGradient>
      <linearGradient id="ar23" x1="0" y1="0" x2="1" y2="0"><stop offset="0" stop-color="#F5A7A7" stop-opacity="0"/><stop offset=".6" stop-color="#F5A7A7" stop-opacity=".55"/><stop offset="1" stop-color="#F5A7A7" stop-opacity=".85"/></linearGradient>
      <filter id="ab20" x="-50%" y="-50%" width="200%" height="200%"><feGaussianBlur stdDeviation="6"/></filter>
      <filter id="ab221" x="-50%" y="-50%" width="200%" height="200%"><feGaussianBlur stdDeviation="2.2"/></filter>
      <filter id="ag22" x="-80%" y="-80%" width="260%" height="260%"><feGaussianBlur stdDeviation="7"/></filter>
      <clipPath id="ac19"><circle cx="86" cy="112" r="30" /><circle cx="132" cy="90" r="40" /><circle cx="178" cy="114" r="26" /><rect x="54" y="108" width="158" height="58" rx="29" /></clipPath>
    </defs>
    <g fill="url(#a17)"><circle cx="86" cy="112" r="30" /><circle cx="132" cy="90" r="40" /><circle cx="178" cy="114" r="26" /><rect x="54" y="108" width="158" height="58" rx="29" /></g>
    <g clip-path="url(#ac19)">
      <ellipse cx="140" cy="186" rx="100" ry="34" fill="#C9BCD3" opacity=".55" filter="url(#ab20)"/>
      <path d="M150 168Q205 160 214 112" fill="none" stroke="url(#ar23)" stroke-width="9" filter="url(#ab221)"/>
      <ellipse cx="116" cy="66" rx="22" ry="12" transform="rotate(-24 116 66)" fill="#fff" opacity=".95" filter="url(#ab221)"/>
      <ellipse cx="80" cy="102" rx="9" ry="5" transform="rotate(-35 80 102)" fill="#fff" opacity=".8" filter="url(#ab221)"/>
    </g>
    <ellipse cx="96" cy="143" rx="10" ry="6" fill="#FF9AAE" opacity=".55" filter="url(#ab221)"/>
    <ellipse cx="170" cy="143" rx="10" ry="6" fill="#FF9AAE" opacity=".55" filter="url(#ab221)"/>
    <path d="M102.25 134.06Q111 120.95 119.75 134.06" fill="none" stroke="#3A2830" stroke-width="3.4" stroke-linecap="round"/><path d="M146.25 134.06Q155 120.95 163.75 134.06" fill="none" stroke="#3A2830" stroke-width="3.4" stroke-linecap="round"/><clipPath id="m24"><path d="M125 138Q133 136.6 141 138Q139.5 150 133 150Q126.5 150 125 138Z"/></clipPath><g clip-path="url(#m24)"><rect x="123" y="135" width="20" height="18" fill="#3A2830"/><ellipse cx="133" cy="150" rx="6" ry="4.6" fill="#F27F94"/></g><g transform="translate(214,132) rotate(12)">
    <linearGradient id="scr25" x1="0" y1="0" x2="0" y2="1"><stop offset="0" stop-color="#facfcf"/><stop offset="1" stop-color="#F5A7A7"/></linearGradient>
    <rect x="-19" y="-28" width="38" height="56" rx="10" fill="#F5A7A7" opacity=".55" filter="url(#ag22)"/>
    <rect x="-15" y="-24" width="30" height="48" rx="7" fill="#3A2830" />
    <rect x="-12.4" y="-21.4" width="24.8" height="42.8" rx="5.4" fill="url(#scr25)"/>
    <path d="M-3 -5L5 0L-3 5Z" fill="#fff" stroke="#fff" stroke-width="2" stroke-linejoin="round" opacity=".95"/>
  </g><ellipse cx="49" cy="115.5" rx="11.5" ry="10.5" fill="#B9A9C4" opacity=".55" filter="url(#ab221)"/><circle cx="48" cy="112" r="10.5" fill="url(#a17)"/><circle cx="44.85" cy="108.325" r="3.675" fill="#fff" opacity=".7" filter="url(#ab221)"/><ellipse cx="202" cy="147.5" rx="11.5" ry="10.5" fill="#B9A9C4" opacity=".55" filter="url(#ab221)"/><circle cx="201" cy="144" r="10.5" fill="url(#a17)"/><circle cx="197.85" cy="140.325" r="3.675" fill="#fff" opacity=".7" filter="url(#ab221)"/></g>
    <path transform="translate(70,62) rotate(-14) scale(1.9)" d="M0 3.2C-1.4 1.4-5 -.4-5 -3.1-5 -5.2-3.2 -6.4-1.6 -6.1-.8 -6 -.3 -5.4 0 -4.8.3 -5.4.8 -6 1.6 -6.1 3.2 -6.4 5 -5.2 5 -3.1 5 -.4 1.4 1.4 0 3.2Z" fill="#FF8FA6" /><path transform="translate(198,50) rotate(12) scale(1.5)" d="M0 3.2C-1.4 1.4-5 -.4-5 -3.1-5 -5.2-3.2 -6.4-1.6 -6.1-.8 -6 -.3 -5.4 0 -4.8.3 -5.4.8 -6 1.6 -6.1 3.2 -6.4 5 -5.2 5 -3.1 5 -.4 1.4 1.4 0 3.2Z" fill="#FF8FA6" /><path transform="translate(88,36) rotate(-6) scale(1)" d="M0 3.2C-1.4 1.4-5 -.4-5 -3.1-5 -5.2-3.2 -6.4-1.6 -6.1-.8 -6 -.3 -5.4 0 -4.8.3 -5.4.8 -6 1.6 -6.1 3.2 -6.4 5 -5.2 5 -3.1 5 -.4 1.4 1.4 0 3.2Z" fill="#FF8FA6" opacity=".75"/><path transform="translate(214,84) scale(0.9)" d="M0-6C.6-1.4 1.4-.6 6 0 1.4.6.6 1.4 0 6-.6 1.4-1.4.6-6 0-1.4-.6-.6-1.4 0-6Z" fill="#FFFFFF" opacity="0.8"/></g></svg>