<svg xmlns="http://www.w3.org/2000/svg" width="32" height="32" viewBox="0 0 32 32"><defs><linearGradient id="t" x1="0" y1="0" x2="0" y2="1"><stop offset="0" stop-color="#f7baba"/><stop offset="1" stop-color="#d5888d"/></linearGradient></defs>
      <rect x="0" y="0" width="32" height="32" rx="7" fill="url(#t)"/><circle cx="26.5" cy="7.5" r="1.6" fill="#FFFFFF"/><path d="M26.5 3.5A4 4 0 0 1 30.5 7.5" fill="none" stroke="#FFFFFF" stroke-width="1.4" stroke-linecap="round" opacity="1"/><clipPath id="c"><circle cx="12.8" cy="14.4" r="7.2" /><circle cx="21.8" cy="17.2" r="5" /><rect x="3.5" y="16.5" width="25" height="9.5" rx="4.75" /></clipPath><g fill="#E8DCE8"><circle cx="12.8" cy="14.4" r="7.2" /><circle cx="21.8" cy="17.2" r="5" /><rect x="3.5" y="16.5" width="25" height="9.5" rx="4.75" /></g>
      <g clip-path="url(#c)"><g fill="#FFFFFF" transform="translate(-0.8,-1.1)"><circle cx="12.8" cy="14.4" r="7.2" /><circle cx="21.8" cy="17.2" r="5" /><rect x="3.5" y="16.5" width="25" height="9.5" rx="4.75" /></g></g><rect x="6" y="23" width="2" height="1" fill="#F6A3B4"/><rect x="22" y="23" width="2" height="1" fill="#F6A3B4"/><rect x="10" y="19" width="2" height="3" fill="#3A2830"/><rect x="18" y="19" width="2" height="3" fill="#3A2830"/></svg>